<svg width="17" height="18" viewBox="0 0 17 18" fill="none" xmlns="http://www.w3.org/2000/svg">
<path d="M8.71181 17.9606C13.2518 17.9606 16.9323 14.143 16.9323 9.43372C16.9323 4.72445 13.2518 0.90683 8.71181 0.90683C4.17176 0.90683 0.491333 4.72445 0.491333 9.43372C0.491333 14.143 4.17176 17.9606 8.71181 17.9606Z" fill="#3772FF"/>
<path d="M4.88218 7.96088C5.65811 7.96088 6.36668 7.96088 7.12236 7.96088C6.88015 7.59165 6.66682 7.25429 6.43765 6.92892C6.40357 6.88009 6.2955 6.8721 6.22151 6.87162C5.59696 6.86713 4.9726 6.87609 4.34845 6.86214C4.25141 6.86014 4.1281 6.7864 4.06615 6.70568C3.89372 6.47947 3.74655 6.23132 3.5675 5.95825C3.66635 5.95028 3.73312 5.93982 3.79988 5.93982C4.76068 5.93882 5.72147 5.9428 6.68186 5.93583C6.83645 5.93483 6.92627 5.98666 7.01268 6.1202C7.56526 6.97426 8.12626 7.82285 8.70269 8.70033C8.75743 8.63008 8.80414 8.57925 8.84164 8.52195C9.36955 7.7197 9.89306 6.91496 10.4268 6.1172C10.4815 6.03549 10.5944 5.94679 10.6814 5.94579C11.6901 5.93383 12.6986 5.93832 13.7074 5.93932C13.7444 5.93932 13.7813 5.94978 13.8563 5.96074C13.6608 6.2602 13.4888 6.53677 13.2999 6.80035C13.2645 6.85018 13.1606 6.86563 13.0886 6.86613C12.4641 6.87112 11.8397 6.8736 11.2151 6.86563C11.071 6.86364 10.9832 6.9075 10.9048 7.03655C10.7231 7.33702 10.5238 7.62602 10.3049 7.96088C11.0586 7.96088 11.7705 7.96088 12.5419 7.96088C12.3287 8.28825 12.1533 8.57078 11.9606 8.84036C11.9251 8.88969 11.8199 8.90264 11.7465 8.90314C11.1542 8.90861 10.5613 8.9156 9.96945 8.90265C9.76494 8.89815 9.63662 8.95495 9.52073 9.14082C9.25848 9.56288 9.25086 9.55242 9.52073 9.95054C9.78318 10.3372 10.042 10.7269 10.2923 11.1225C10.7406 11.8311 10.7065 12.7544 10.2165 13.4077C9.71401 14.0779 8.87332 14.3455 8.10901 14.0784C7.34511 13.8113 6.8182 13.0703 6.81299 12.2272C6.80998 11.8121 6.92386 11.427 7.15684 11.0812C7.4596 10.6322 7.74972 10.1743 8.05428 9.7268C8.14109 9.59925 8.12726 9.51404 8.06049 9.37501C7.87744 8.99382 7.61699 8.85828 7.20196 8.89516C6.70151 8.93952 6.19425 8.9141 5.68979 8.89915C5.59134 8.89616 5.46543 8.8274 5.40388 8.74619C5.22864 8.51496 5.07867 8.26134 4.88218 7.96088ZM8.7474 10.397C8.7041 10.4309 8.68064 10.4414 8.66861 10.4598C8.39713 10.8699 8.11764 11.2745 7.85919 11.6936C7.60797 12.1002 7.69017 12.6333 8.03202 12.9662C8.37227 13.2971 8.87753 13.3379 9.27011 13.0653C9.64624 12.8042 9.84554 12.277 9.63802 11.8645C9.38238 11.3557 9.04996 10.8883 8.7474 10.397Z" fill="white"/>
</svg>
