<svg width="92" height="33" viewBox="0 0 92 33" fill="none" xmlns="http://www.w3.org/2000/svg">
<rect x="33.0393" y="0.779114" width="58.1912" height="25.8627" rx="12.9314" fill="#353945"/>
<g filter="url(#filter0_d_12175_251)">
<circle cx="76.2071" cy="13.7111" r="9.11666" fill="#3772FF"/>
</g>
<path d="M52.8865 14.8418C52.3801 14.9677 51.8738 15.0307 51.3674 15.0307C48.2028 15.0307 45.6711 12.5115 45.6711 9.3626C45.6711 8.85877 45.7344 8.35493 45.861 7.8511C45.9243 7.66217 45.861 7.41025 45.6711 7.22131C45.4812 7.03238 45.2913 6.9694 45.0382 7.03238C42.0634 7.91408 39.9747 10.6852 39.9747 13.7711C39.9747 17.6128 43.0761 20.6988 46.9369 20.6988C50.0383 20.6988 52.8232 18.6205 53.646 15.5975C53.7093 15.4086 53.646 15.1567 53.4561 14.9677C53.3295 14.8418 53.0763 14.7788 52.8865 14.8418Z" fill="#808191"/>
<path d="M48.2029 8.10368H48.8358V8.73347C48.8358 9.11134 49.089 9.36326 49.4687 9.36326C49.8485 9.36326 50.1017 9.11134 50.1017 8.73347V8.10368H50.7346C51.1143 8.10368 51.3675 7.85176 51.3675 7.47389C51.3675 7.09601 51.1143 6.8441 50.7346 6.8441H50.1017V6.21431C50.1017 5.83643 49.8485 5.58452 49.4687 5.58452C49.089 5.58452 48.8358 5.83643 48.8358 6.21431V6.8441H48.2029C47.8231 6.8441 47.5699 7.09601 47.5699 7.47389C47.5699 7.85176 47.8231 8.10368 48.2029 8.10368Z" fill="#808191"/>
<path d="M54.5329 10.6222H53.9V9.99237C53.9 9.6145 53.6468 9.36258 53.2671 9.36258C52.8873 9.36258 52.6341 9.6145 52.6341 9.99237V10.6222H52.0012C51.6215 10.6222 51.3683 10.8741 51.3683 11.2519C51.3683 11.6298 51.6215 11.8817 52.0012 11.8817H52.6341V12.5115C52.6341 12.8894 52.8873 13.1413 53.2671 13.1413C53.6468 13.1413 53.9 12.8894 53.9 12.5115V11.8817H54.5329C54.9127 11.8817 55.1659 11.6298 55.1659 11.2519C55.1659 10.8741 54.9127 10.6222 54.5329 10.6222Z" fill="#808191"/>
<path d="M10.3838 3.11636C4.83425 3.11636 0.340332 7.83384 0.340332 13.6465C0.340332 19.4591 4.83425 24.1765 10.3838 24.1765C15.9434 24.1765 20.4473 19.4591 20.4473 13.6465C20.4473 7.83384 15.9434 3.11636 10.3838 3.11636ZM17.3509 9.43442H14.3851C14.0634 8.11816 13.6009 6.85455 12.9977 5.68571C14.8475 6.3491 16.3857 7.69695 17.3509 9.43442ZM10.3938 5.2645C11.2283 6.52811 11.8817 7.92862 12.314 9.43442H8.47361C8.90591 7.92862 9.55939 6.52811 10.3938 5.2645ZM2.61242 15.7525C2.45157 15.0785 2.35103 14.373 2.35103 13.6465C2.35103 12.9199 2.45157 12.2144 2.61242 11.5404H6.01051C5.93008 12.2354 5.86976 12.9304 5.86976 13.6465C5.86976 14.3625 5.93008 15.0575 6.01051 15.7525H2.61242ZM3.43681 17.8585H6.40259C6.7243 19.1748 7.18676 20.4384 7.78997 21.6072C5.94013 20.9438 4.40195 19.6065 3.43681 17.8585ZM6.40259 9.43442H3.43681C4.40195 7.68642 5.94013 6.3491 7.78997 5.68571C7.18676 6.85455 6.7243 8.11816 6.40259 9.43442ZM10.3938 22.0284C9.55939 20.7648 8.90591 19.3643 8.47361 17.8585H12.314C11.8817 19.3643 11.2283 20.7648 10.3938 22.0284ZM12.7463 15.7525H8.04131C7.95083 15.0575 7.88046 14.3625 7.88046 13.6465C7.88046 12.9304 7.95083 12.2249 8.04131 11.5404H12.7463C12.8368 12.2249 12.9072 12.9304 12.9072 13.6465C12.9072 14.3625 12.8368 15.0575 12.7463 15.7525ZM12.9977 21.6072C13.6009 20.4384 14.0634 19.1748 14.3851 17.8585H17.3509C16.3857 19.596 14.8475 20.9438 12.9977 21.6072ZM14.7772 15.7525C14.8576 15.0575 14.9179 14.3625 14.9179 13.6465C14.9179 12.9304 14.8576 12.2354 14.7772 11.5404H18.1752C18.3361 12.2144 18.4366 12.9199 18.4366 13.6465C18.4366 14.373 18.3361 15.0785 18.1752 15.7525H14.7772Z" fill="#808191"/>
<defs>
<filter id="filter0_d_12175_251" x="60.6248" y="1.36159" width="31.1646" height="31.1647" filterUnits="userSpaceOnUse" color-interpolation-filters="sRGB">
<feFlood flood-opacity="0" result="BackgroundImageFix"/>
<feColorMatrix in="SourceAlpha" type="matrix" values="0 0 0 0 0 0 0 0 0 0 0 0 0 0 0 0 0 0 127 0" result="hardAlpha"/>
<feOffset dy="3.23284"/>
<feGaussianBlur stdDeviation="3.23284"/>
<feColorMatrix type="matrix" values="0 0 0 0 0 0 0 0 0 0 0 0 0 0 0 0 0 0 0.1 0"/>
<feBlend mode="normal" in2="BackgroundImageFix" result="effect1_dropShadow_12175_251"/>
<feBlend mode="normal" in="SourceGraphic" in2="effect1_dropShadow_12175_251" result="shape"/>
</filter>
</defs>
</svg>
